<svg width="80" height="57" viewBox="0 0 80 57" fill="none" xmlns="http://www.w3.org/2000/svg">
<g clip-path="url(#clip0_3802_7873)">
<path fill-rule="evenodd" clip-rule="evenodd" d="M9.17714 53.3998L12.189 45.1622L13.174 53.3998H16.3559L14.6326 41.3011H10.7495L8.17793 48.5691L5.60695 41.3011H1.72388L0 53.3998H3.18251L4.16688 45.1622L7.17934 53.3998H9.17714Z" fill="#231F20"/>
<path fill-rule="evenodd" clip-rule="evenodd" d="M69.5732 40.3036V53.3893H72.8695V48.833L76.2499 53.3893H80L76.279 48.579L79.668 44.4026H75.8808L72.8695 48.3318V40.3036H69.5732Z" fill="#231F20"/>
<path fill-rule="evenodd" clip-rule="evenodd" d="M33.8861 44.4025L31.7282 50.6947L29.5393 44.4025H25.9036L29.995 53.3997L28.3744 56.9294H31.8982L37.5231 44.4025H33.8861Z" fill="#231F20"/>
<path fill-rule="evenodd" clip-rule="evenodd" d="M41.4064 51.3131V46.5803C42.0742 46.3548 44.4931 45.7495 44.4931 48.8244C44.4931 51.9581 42.0117 51.4773 41.4064 51.3131ZM38.0532 52.9364C38.0532 52.9364 39.7963 53.5894 42.2399 53.5894C44.6829 53.5894 47.8648 52.8292 47.8648 48.6168C47.8648 44.4026 43.6416 44.2508 43.1488 44.2508C42.2189 44.2508 41.6247 44.5042 41.4064 44.6163V40.2837H38.0532V52.9364Z" fill="#231F20"/>
<path fill-rule="evenodd" clip-rule="evenodd" d="M51.3508 50.6276C51.3508 49.3346 53.8031 49.2422 54.4771 49.2416V51.5445C53.7753 51.6288 51.3508 51.8289 51.3508 50.6276ZM49.6647 46.6804C54.4758 45.2566 54.4771 46.966 54.4771 47.1927V47.4982C50.5829 47.531 48.2629 48.6456 48.2629 50.666C48.2629 52.7155 50.4227 53.6076 53.2831 53.6076C56.1435 53.6076 57.6015 52.9429 57.6015 52.9429V47.3445C57.6015 45.3706 56.3327 44.1179 53.2831 44.1179C50.2329 44.1179 48.9078 44.8396 48.9078 44.8396L49.6647 46.6804Z" fill="#231F20"/>
<path fill-rule="evenodd" clip-rule="evenodd" d="M19.8701 50.6276C19.8701 49.3346 22.3224 49.2422 22.9951 49.2416V51.5445C22.294 51.6288 19.8701 51.8289 19.8701 50.6276ZM18.184 46.6804C22.9951 45.2566 22.9951 46.966 22.9951 47.1927V47.4982C19.1022 47.531 16.7822 48.6456 16.7822 50.666C16.7822 52.7155 18.942 53.6076 21.8018 53.6076C24.6621 53.6076 26.1208 52.9429 26.1208 52.9429V47.3445C26.1208 45.3706 24.852 44.1179 21.8018 44.1179C18.7522 44.1179 17.4265 44.8396 17.4265 44.8396L18.184 46.6804Z" fill="#231F20"/>
<path fill-rule="evenodd" clip-rule="evenodd" d="M65.0077 53.3805H68.3225V47.6868C68.3225 44.7259 66.2017 44.0989 63.5868 44.0989C60.9738 44.0989 58.8708 44.8201 58.8708 44.8201V53.3805H62.1863V46.5728C64.735 45.8262 65.0077 47.053 65.0077 47.6484V53.3805Z" fill="#231F20"/>
<path fill-rule="evenodd" clip-rule="evenodd" d="M39.3597 0C29.7544 0 21.9383 7.83282 21.9383 17.4562C21.9383 27.0817 29.7544 34.9145 39.3597 34.9145C48.967 34.9145 56.7821 27.0817 56.7821 17.4562C56.7821 7.83282 48.967 0 39.3597 0Z" fill="#FFC600"/>
<path fill-rule="evenodd" clip-rule="evenodd" d="M39.3597 0C29.7544 0 21.9383 7.83282 21.9383 17.4562C21.9383 27.0817 29.7544 34.9145 39.3597 34.9145C48.967 34.9145 56.7821 27.0817 56.7821 17.4562C56.7821 7.83282 48.967 0 39.3597 0ZM39.3595 1.45782C48.1767 1.45782 55.3258 8.61903 55.3258 17.456C55.3258 26.2919 48.1767 33.4542 39.3595 33.4542C30.5434 33.4542 23.3954 26.2919 23.3954 17.456C23.3954 8.61903 30.5434 1.45782 39.3595 1.45782Z" fill="#231F20"/>
<path fill-rule="evenodd" clip-rule="evenodd" d="M31.8573 11.3443C31.8573 11.3443 32.2267 9.88953 32.8167 9.3971C33.4077 8.90359 35.5309 7.49817 38.5974 6.51223C38.9625 6.39422 39.3865 6.52939 39.4058 6.53583C39.3854 6.65706 39.3736 6.73967 39.3683 6.76649C39.3276 6.99715 39.1552 7.14413 39.1552 7.14413C39.7784 7.22674 40.1885 6.78366 40.303 6.27298C40.4187 5.76553 40.8116 3.74644 41.4519 3.77648C43.2389 3.85802 44.5184 9.64385 44.3877 9.90562C44.301 10.0773 43.5997 9.93781 43.5997 9.93781C44.7143 11.6962 46.1737 11.679 46.5024 11.4012C46.83 11.1233 46.6501 10.2178 46.6501 10.2178C50.1599 12.3056 49.9629 14.7871 49.9629 14.7871C51.0122 10.6791 48.5859 8.91968 48.5859 8.91968C49.5367 8.88643 50.57 9.49473 50.57 9.49473C49.0935 7.50675 46.043 6.40494 46.043 6.40494C46.043 6.40494 42.4851 2.44509 41.3373 2.59314C40.3855 2.71652 39.8415 4.46525 39.5749 5.66039C39.4443 5.64966 39.1948 5.64001 38.8704 5.67863C38.6188 5.36536 37.5535 4.09834 37.1391 4.51567C36.9774 4.6766 36.926 5.8181 36.9121 6.29766C35.1883 6.98428 32.2556 8.27491 31.6593 9.22222C31.1196 10.0859 30.9954 10.7274 30.9954 10.7274C30.9954 10.7274 27.4792 12.9943 26.6173 15.4619C26.6173 15.4619 28.9793 12.6993 31.8573 11.3443Z" fill="#231F20"/>
<path fill-rule="evenodd" clip-rule="evenodd" d="M43.1733 9.51292C43.123 7.68695 42.2226 6.22574 41.7622 6.14098C41.3039 6.06052 41.1561 7.80067 41.1561 7.80067C42.3703 8.6053 43.1733 9.51292 43.1733 9.51292Z" fill="#231F20"/>
<path fill-rule="evenodd" clip-rule="evenodd" d="M34.5298 9.18408C33.8242 9.60893 34.1369 9.97155 34.1369 9.97155C34.1369 9.97155 34.0223 9.60893 34.8917 9.36325C36.4421 8.92446 37.8436 8.47494 37.8094 8.09837C37.7772 7.72073 36.728 7.57268 36.728 7.57268C37.0235 7.96641 35.2354 8.75602 34.5298 9.18408Z" fill="#231F20"/>
<path fill-rule="evenodd" clip-rule="evenodd" d="M35.2597 11.598C35.4728 11.598 35.6451 11.4263 35.6451 11.2128C35.6451 11.0959 35.5927 10.995 35.5102 10.9242C35.7661 10.9071 36.3507 10.9392 36.3507 10.9392C36.2854 10.9242 36.1377 11.0884 35.809 11.4993C35.4813 11.9112 35.1708 11.598 35.1708 11.598L35.1655 11.5797C35.1955 11.5862 35.2265 11.598 35.2597 11.598ZM34.022 13.3564C34.022 13.3564 34.4642 12.3222 34.7929 12.1913C34.7929 12.1913 35.3668 12.3383 35.6783 12.2224C35.9899 12.1087 36.5799 11.3202 36.8101 11.303C36.8101 11.303 36.203 13.9465 33.7425 13.8982C33.7425 13.8982 35.5145 14.9013 36.4161 14.1943C37.3187 13.4873 36.6291 12.9455 37.794 11.8115C38.9579 10.6765 38.1881 10.6293 38.1388 10.6464C38.0896 10.6614 37.7277 10.5466 37.7277 10.5466C37.7277 10.5466 37.8915 10.3331 38.2213 10.1872C38.5489 10.037 40.4344 9.18414 40.4676 8.67132C40.4997 8.16387 39.1057 7.58882 38.4011 7.60384C38.4011 7.60384 39.0393 7.86669 39.0071 8.22931C38.975 8.59086 37.1388 9.39656 37.1388 10.4319C37.1388 10.4319 36.4824 10.4801 36.006 10.3836C35.5306 10.2827 35.022 10.3332 34.4974 10.6765C33.9727 11.023 33.9406 10.2516 33.9888 10.1518C33.9888 10.1518 32.9727 10.7923 34.2522 11.6141C34.2522 11.6141 33.7265 12.157 33.6772 12.2889C33.628 12.4198 33.4149 13.1258 34.022 13.3564Z" fill="#231F20"/>
<path fill-rule="evenodd" clip-rule="evenodd" d="M32.3983 16.7421C32.3983 16.7421 32.3737 15.8055 31.5118 16.0029C30.0642 16.3333 29.5685 18.9103 29.5685 18.9103C31.1938 15.9042 32.3983 16.7421 32.3983 16.7421Z" fill="#231F20"/>
<path fill-rule="evenodd" clip-rule="evenodd" d="M32.94 19.0334C33.7259 17.7535 32.7676 16.9393 31.5374 17.628C30.3082 18.3189 30.0117 19.9711 30.0117 19.9711C32.4475 17.3094 32.94 19.0334 32.94 19.0334Z" fill="#231F20"/>
<path fill-rule="evenodd" clip-rule="evenodd" d="M44.5515 17.3822C44.5515 17.3822 43.6649 16.5958 43.7634 15.1389C43.8619 13.6841 44.1328 11.4934 41.6734 9.96354C41.6734 9.96354 42.6809 11.517 42.3116 13.0447C41.9422 14.5735 40.7109 17.1816 40.8115 18.0485C41.0331 19.9463 43.0011 20.2918 42.8533 22.8795C42.8533 22.8795 44.0097 21.473 43.7891 19.8229C43.5675 18.1708 42.1156 17.4552 42.7548 16.1506C42.7548 16.1506 43.4925 17.2342 44.5515 17.3822Z" fill="#231F20"/>
<path fill-rule="evenodd" clip-rule="evenodd" d="M33.3702 24.9739C33.1475 24.902 32.9516 24.0877 32.9516 24.0877C33.2717 24.3473 33.9238 24.3591 33.9238 24.3591C33.6154 24.6531 33.5919 25.0479 33.3702 24.9739ZM35.8264 22.3787C35.8264 22.3787 36.5962 22.4109 36.6294 22.28C36.6626 22.148 36.3832 21.2436 36.3832 21.2436C36.3832 21.2436 37.3511 21.3423 37.3682 21.6556C37.3843 21.9656 36.8265 22.7574 35.6455 23.2659C35.6455 23.2659 35.8596 22.6405 35.8264 22.3787ZM30.822 21.5408C30.928 21.4797 31.0275 21.4142 31.1185 21.3423C31.3584 21.161 31.5383 21.0741 31.6592 21.0344C31.6346 21.381 31.6143 21.9903 31.7224 22.4967C31.7224 22.4967 31.0854 22.088 30.822 21.5408ZM27.7405 18.3845C27.3636 18.3845 26.6912 17.3825 26.5766 17.1851C26.4621 16.9887 27.2148 16.6261 27.446 16.5607C27.6752 16.4941 27.9172 16.5499 27.9536 16.6615C27.9867 16.757 27.4792 17.0703 27.4129 17.1851C27.3475 17.3009 27.8154 17.7333 27.8882 17.8245C28.0189 17.9918 28.1184 18.3845 27.7405 18.3845ZM51.6332 10.5045C51.6332 10.5045 53.7842 16.3643 51.3569 21.6878C51.3569 21.6878 51.495 20.9142 50.8976 19.3887C50.2573 17.7536 50.4714 15.6412 50.7338 15.2475C50.7338 15.2475 49.5517 16.4298 49.6181 18.4027C49.6845 20.3725 50.2081 25.9276 46.2079 27.9982C46.2079 27.9982 47.724 25.2206 47.1576 21.9656C47.1576 21.9656 47.6748 22.1652 47.9457 22.855C47.9457 22.855 49.0281 19.9959 47.6255 16.4941C47.6255 16.4941 48.4125 16.6433 48.905 17.0617C48.905 17.0617 49.4222 14.5566 46.5923 12.7971C45.8792 12.353 45.9766 12.1084 45.9766 12.1084C45.9766 12.1084 45.7561 12.6748 46.2229 13.2413C46.6897 13.8088 47.3311 14.9181 47.2326 15.4857C47.2326 15.4857 46.4692 14.9417 45.3621 15.0909C45.3621 15.0909 47.4778 16.8889 47.1576 20.7598C47.1576 20.7598 46.618 20.1686 45.24 19.9219C45.24 19.9219 46.7893 22.8314 45.4113 25.6154C45.4113 25.6154 45.3128 24.6295 44.8706 24.0126C44.8706 24.0126 44.5258 26.0596 42.0665 26.7752C42.0665 26.7752 44.058 24.284 41.6971 23.0288C39.3351 21.7693 37.3425 24.5555 36.9496 26.9972C36.9496 26.9972 34.2193 27.1925 33.9484 26.0843C33.6775 24.9739 34.4645 24.505 34.4645 24.505C34.4645 24.505 34.8831 24.7765 35.8435 24.3334C36.8018 23.8903 38.819 22.6812 38.622 21.1535C38.425 19.6268 36.0395 18.1227 34.1443 18.7374C32.2513 19.3554 31.1678 21.0312 30.1838 21.0065C29.1999 20.9818 27.9942 19.4777 28.1677 18.6902C28.339 17.9006 28.9782 17.6785 29.1999 16.3472C29.1999 16.3472 28.8562 16.3804 28.627 16.2324C28.3968 16.0832 27.7897 15.8376 27.4621 15.9212C27.1334 16.0028 26.3304 16.5456 26.2972 16.4459C26.264 16.3472 26.3796 15.7539 26.3796 15.7539C26.3796 15.7539 25.4942 16.6905 25.6259 17.0702C25.7565 17.4479 26.5274 18.3845 27.3304 18.9112C27.3304 18.9112 27.4792 20.0603 28.5285 21.1299C29.1549 21.7682 29.7395 21.8841 30.2384 21.7768C30.4494 22.089 31.1678 23.031 32.3124 23.2369C32.3124 23.2369 32.1143 21.9163 32.2578 20.9185C32.3017 20.8949 32.3456 20.8692 32.382 20.8327C32.5619 20.6535 34.6615 18.7138 36.2194 20.587C36.2194 20.587 35.5138 20.8499 35.2354 21.736C34.957 22.6254 34.7932 24.8269 32.4805 23.414C32.4805 23.414 32.2835 24.6788 32.9891 25.4363C32.9891 25.4363 32.8906 26.7827 34.4152 27.5208C35.941 28.2611 37.0074 27.7032 37.9914 28.1956C37.9914 28.1956 37.8929 26.1733 38.728 24.9417C39.5653 23.709 40.7463 23.2981 41.3202 23.7766C41.893 24.2518 42.2549 26.0596 40.0407 27.9338C40.0407 27.9338 42.5825 28.2611 44.3213 26.9307C44.3213 26.9307 44.1051 29.2781 42.3502 31.2672C48.7091 29.9004 53.4555 24.2358 53.4555 17.4554C53.4555 14.9289 52.7927 12.5568 51.6332 10.5045Z" fill="#231F20"/>
<path fill-rule="evenodd" clip-rule="evenodd" d="M41.4188 11.0553C41.4188 11.0553 39.7624 10.1208 39.0247 11.0885C38.3298 12.0015 38.7817 13.5646 38.3737 14.542C38.3619 14.5313 38.347 14.5184 38.3352 14.5077C37.4165 13.6837 36.2859 15.0827 36.0717 15.4925C35.8597 15.9045 35.5803 15.9517 35.5803 15.9517C33.5631 16.3637 33.9892 14.7372 33.3168 14.2448C32.6455 13.7502 31.5127 14.4755 31.5127 14.4755C32.6444 14.2588 32.9067 15.0494 32.8746 15.3606C32.8414 15.6738 33.0705 16.5954 33.3821 17.1039C33.6937 17.6125 34.9571 17.2509 35.9903 17.3357C37.0236 17.4161 37.6135 18.6799 37.6135 18.6799C38.2367 17.1683 36.5642 16.4795 36.5642 16.4795C36.5642 16.4795 37.0525 15.5505 37.6296 15.8702C39.4669 16.8883 39.0076 21.0134 39.0076 21.0134C40.5901 18.033 39.893 16.2832 39.0675 15.2608C39.1714 14.3317 39.6414 11.4007 41.4188 11.0553Z" fill="#231F20"/>
</g>
<defs>
<clipPath id="clip0_3802_7873">
<rect width="80" height="56.9294" fill="white"/>
</clipPath>
</defs>
</svg>
